<svg id="visual" viewBox="0 0 1920 1800" width="1920" height="1800" xmlns="http://www.w3.org/2000/svg" xmlns:xlink="http://www.w3.org/1999/xlink" version="1.1"><rect x="0" y="0" width="1920" height="1800" fill="#ffe0e0"></rect><path d="M0 671L45.7 631.2C91.3 591.3 182.7 511.7 274.2 446.2C365.7 380.7 457.3 329.3 548.8 354.5C640.3 379.7 731.7 481.3 823 535.5C914.3 589.7 1005.7 596.3 1097 551C1188.3 505.7 1279.7 408.3 1371.2 380.5C1462.7 352.7 1554.3 394.3 1645.8 381.2C1737.3 368 1828.7 300 1874.3 266L1920 232L1920 0L1874.3 0C1828.7 0 1737.3 0 1645.8 0C1554.3 0 1462.7 0 1371.2 0C1279.7 0 1188.3 0 1097 0C1005.7 0 914.3 0 823 0C731.7 0 640.3 0 548.8 0C457.3 0 365.7 0 274.2 0C182.7 0 91.3 0 45.7 0L0 0Z" fill="#fc644a" stroke-linecap="round" stroke-linejoin="miter"></path></svg>