<svg id="visual" viewBox="0 0 360 800" width="360" height="800" xmlns="http://www.w3.org/2000/svg" xmlns:xlink="http://www.w3.org/1999/xlink" version="1.1"><rect x="0" y="0" width="360" height="800" fill="#ffe0e0"></rect><path d="M0 297L8.5 279.3C17 261.7 34 226.3 51.2 197.3C68.3 168.3 85.7 145.7 102.8 157C120 168.3 137 213.7 154.2 237.7C171.3 261.7 188.7 264.3 205.8 244.2C223 224 240 181 257.2 168.7C274.3 156.3 291.7 174.7 308.8 168.8C326 163 343 133 351.5 118L360 103L360 0L351.5 0C343 0 326 0 308.8 0C291.7 0 274.3 0 257.2 0C240 0 223 0 205.8 0C188.7 0 171.3 0 154.2 0C137 0 120 0 102.8 0C85.7 0 68.3 0 51.2 0C34 0 17 0 8.5 0L0 0Z" fill="#fc644a" stroke-linecap="round" stroke-linejoin="miter"></path></svg>