<svg id="visual" viewBox="0 0 900 600" width="900" height="600" xmlns="http://www.w3.org/2000/svg" xmlns:xlink="http://www.w3.org/1999/xlink" version="1.1"><rect x="0" y="0" width="900" height="600" fill="#002233"></rect><path d="M0 186L21.5 191.3C43 196.7 86 207.3 128.8 208.8C171.7 210.3 214.3 202.7 257.2 193C300 183.3 343 171.7 385.8 159.2C428.7 146.7 471.3 133.3 514.2 123.2C557 113 600 106 642.8 117.2C685.7 128.3 728.3 157.7 771.2 170.2C814 182.7 857 178.3 878.5 176.2L900 174L900 0L878.5 0C857 0 814 0 771.2 0C728.3 0 685.7 0 642.8 0C600 0 557 0 514.2 0C471.3 0 428.7 0 385.8 0C343 0 300 0 257.2 0C214.3 0 171.7 0 128.8 0C86 0 43 0 21.5 0L0 0Z" fill="#fc644a" stroke-linecap="round" stroke-linejoin="miter"></path></svg>